<svg xmlns="http://www.w3.org/2000/svg" xmlns:xlink="http://www.w3.org/1999/xlink" fill="none" version="1.1" width="14" height="16" viewBox="0 0 14 16"><g transform="matrix(1,0,0,-1,0,32)"><g><path d="M4,32Q4.4375,32,4.71875,31.7188Q5,31.4375,5,31L5,30L9,30L9,31Q9,31.4375,9.28125,31.7188Q9.5625,32,10,32Q10.4375,32,10.7188,31.7188Q11,31.4375,11,31L11,30L12.5,30Q13.125,29.9688,13.5625,29.5625Q13.9688,29.125,14,28.5L14,27L0,27L0,28.5Q0.03125,29.125,0.4375,29.5625Q0.875,29.9688,1.5,30L3,30L3,31Q3,31.4375,3.28125,31.7188Q3.5625,32,4,32ZM0,26L14,26L0,26L14,26L14,17.5Q13.9688,16.875,13.5625,16.4375Q13.125,16.03125,12.5,16L1.5,16Q0.875,16.03125,0.4375,16.4375Q0.03125,16.875,0,17.5L0,26ZM2,23.5L2,22.5L2,23.5L2,22.5Q2.03125,22.03125,2.5,22L3.5,22Q3.96875,22.03125,4,22.5L4,23.5Q3.96875,23.96875,3.5,24L2.5,24Q2.03125,23.96875,2,23.5ZM6,23.5L6,22.5L6,23.5L6,22.5Q6.03125,22.03125,6.5,22L7.5,22Q7.96875,22.03125,8,22.5L8,23.5Q7.96875,23.96875,7.5,24L6.5,24Q6.03125,23.96875,6,23.5ZM10.5,24Q10.0312,23.96875,10,23.5L10,22.5Q10.0312,22.03125,10.5,22L11.5,22Q11.9688,22.03125,12,22.5L12,23.5Q11.9688,23.96875,11.5,24L10.5,24ZM2,19.5L2,18.5L2,19.5L2,18.5Q2.03125,18.03125,2.5,18L3.5,18Q3.96875,18.03125,4,18.5L4,19.5Q3.96875,19.96875,3.5,20L2.5,20Q2.03125,19.96875,2,19.5ZM6.5,20Q6.03125,19.96875,6,19.5L6,18.5Q6.03125,18.03125,6.5,18L7.5,18Q7.96875,18.03125,8,18.5L8,19.5Q7.96875,19.96875,7.5,20L6.5,20ZM10,19.5L10,18.5L10,19.5L10,18.5Q10.0312,18.03125,10.5,18L11.5,18Q11.9688,18.03125,12,18.5L12,19.5Q11.9688,19.96875,11.5,20L10.5,20Q10.0312,19.96875,10,19.5Z" fill="#000000" fill-opacity="1" style="mix-blend-mode:passthrough"/></g></g></svg>