<svg xmlns="http://www.w3.org/2000/svg" xmlns:xlink="http://www.w3.org/1999/xlink" fill="none" version="1.1" width="12" height="16" viewBox="0 0 12 16"><g transform="matrix(1,0,0,-1,0,32)"><g><path d="M6,32Q5,31.9688,4.25,31.4375Q3.5,30.875,3.1875,30L2,30Q1.15625,29.9688,0.59375,29.4062Q0.03125,28.8438,0,28L0,18Q0.03125,17.15625,0.59375,16.59375Q1.15625,16.03125,2,16L10,16Q10.8438,16.03125,11.4062,16.59375Q11.9688,17.15625,12,18L12,28Q11.9688,28.8438,11.4062,29.4062Q10.8438,29.9688,10,30L8.84375,30Q8.5,30.875,7.75,31.4375Q7,31.9688,6,32ZM6,30Q6.4375,30,6.71875,29.7188Q7,29.4375,7,29Q7,28.5625,6.71875,28.2812Q6.4375,28,6,28Q5.5625,28,5.28125,28.2812Q5,28.5625,5,29Q5,29.4375,5.28125,29.7188Q5.5625,30,6,30ZM3.5,26L8.5,26L3.5,26L8.5,26Q8.96875,25.96875,9,25.5Q8.96875,25.03125,8.5,25L3.5,25Q3.03125,25.03125,3,25.5Q3.03125,25.96875,3.5,26Z" fill="#000000" fill-opacity="1" style="mix-blend-mode:passthrough"/></g></g></svg>