<svg xmlns="http://www.w3.org/2000/svg" xmlns:xlink="http://www.w3.org/1999/xlink" fill="none" version="1.1" width="20" height="16" viewBox="0 0 20 16"><defs><clipPath id="master_svg0_30_0348"><rect x="0" y="0" width="20" height="16" rx="0"/></clipPath></defs><g clip-path="url(#master_svg0_30_0348)"><g transform="matrix(1,0,0,-1,0,32.6875)"><g><path d="M12.2812,32.31255Q11.875,32.40625,11.5,32.21875Q11.1562,32.03125,11.0312,31.62495L7.03125,17.625Q6.9375,17.21875,7.125,16.84375Q7.3125,16.5,7.71875,16.375Q8.125,16.28125,8.5,16.46875Q8.84375,16.65625,8.96875,17.0625L12.9688,31.06255Q13.0625,31.46875,12.875,31.84375Q12.6875,32.18755,12.2812,32.31255ZM14.7812,28.56255Q14.5,28.24995,14.5,27.84375Q14.5,27.43755,14.7812,27.12495L17.5938,24.34375L14.7812,21.5625Q14.5,21.25,14.5,20.84375Q14.5,20.4375,14.7812,20.125Q15.0938,19.84375,15.5,19.84375Q15.9062,19.84375,16.2188,20.125L19.7188,23.625Q20,23.9375,20,24.34375Q20,24.75,19.7188,25.0625L16.2188,28.56255Q15.9062,28.84375,15.5,28.84375Q15.0938,28.84375,14.7812,28.56255ZM5.21875,28.56255Q4.90625,28.84375,4.5,28.84375Q4.09375,28.84375,3.78125,28.56255L0.28125,25.0625Q0,24.75,0,24.34375Q0,23.9375,0.28125,23.625L3.78125,20.125Q4.09375,19.84375,4.5,19.84375Q4.90625,19.84375,5.21875,20.125Q5.5,20.4375,5.5,20.84375Q5.5,21.25,5.21875,21.5625L2.40625,24.34375L5.21875,27.12495Q5.5,27.43755,5.5,27.84375Q5.5,28.24995,5.21875,28.56255Z" fill="#000000" fill-opacity="1" style="mix-blend-mode:passthrough"/></g></g></g></svg>