<svg xmlns="http://www.w3.org/2000/svg" xmlns:xlink="http://www.w3.org/1999/xlink" fill="none" version="1.1" width="16" height="16" viewBox="0 0 16 16"><defs><clipPath id="master_svg0_30_0333"><rect x="0" y="0" width="16" height="16" rx="0"/></clipPath></defs><g clip-path="url(#master_svg0_30_0333)"><g transform="matrix(1,0,0,-1,0,32.69140625)"><g><path d="M11,24.347653125Q11,23.316403125,10.9062,22.347653125L5.09375,22.347653125Q5,23.316403125,5,24.347653125Q5,25.378903125,5.09375,26.347703125000002L10.9062,26.347703125000002Q11,25.378903125,11,24.347653125ZM11.9062,26.347703125000002L15.75,26.347703125000002L11.9062,26.347703125000002L15.75,26.347703125000002Q16,25.378903125,16,24.347653125Q16,23.316403125,15.75,22.347653125L11.9062,22.347653125Q12,23.316403125,12,24.347653125Q12,25.378903125,11.9062,26.347703125000002ZM15.4062,27.347703125000002L11.7812,27.347703125000002L15.4062,27.347703125000002L11.7812,27.347703125000002Q11.2812,30.410203125000002,10.0312,32.097703125Q11.9062,31.566403125,13.3125,30.347703125000002Q14.6875,29.097703125000002,15.4062,27.347703125000002ZM10.75,27.347703125000002L5.25,27.347703125000002L10.75,27.347703125000002L5.25,27.347703125000002Q5.53125,29.066403125,6.09375,30.316403125Q6.59375,31.410203125000002,7.125,31.910203125000002Q7.65625,32.378903125,8,32.347703124999995Q8.34375,32.378903125,8.875,31.910203125000002Q9.40625,31.410203125000002,9.90625,30.316403125Q10.4688,29.066403125,10.75,27.347703125000002ZM4.21875,27.347703125000002L0.59375,27.347703125000002L4.21875,27.347703125000002L0.59375,27.347703125000002Q1.3125,29.097703125000002,2.6875,30.347703125000002Q4.09375,31.566403125,5.96875,32.097703125Q4.71875,30.410203125000002,4.21875,27.347703125000002ZM0.25,26.347703125000002L4.09375,26.347703125000002L0.25,26.347703125000002L4.09375,26.347703125000002Q4,25.378903125,4,24.347653125Q4,23.316403125,4.09375,22.347653125L0.25,22.347653125Q0,23.316403125,0,24.347653125Q0,25.378903125,0.25,26.347703125000002ZM6.09375,18.378903125Q5.53125,19.628903125,5.25,21.347653125L10.75,21.347653125Q10.4688,19.628903125,9.90625,18.378903125Q9.40625,17.285156125,8.875,16.785156125Q8.34375,16.316406225,8,16.347656245Q7.65625,16.316406225,7.125,16.785156125Q6.59375,17.285156125,6.09375,18.378903125ZM4.21875,21.347653125Q4.71875,18.285153125,5.96875,16.597656125Q4.09375,17.128906125,2.6875,18.347653125Q1.3125,19.597653125,0.59375,21.347653125L4.21875,21.347653125ZM15.4062,21.347653125Q14.6875,19.597653125,13.3125,18.347653125Q11.9062,17.128906125,10.0625,16.597656125Q11.2812,18.285153125,11.7812,21.347653125L15.4375,21.347653125L15.4062,21.347653125Z" fill="#000000" fill-opacity="1" style="mix-blend-mode:passthrough"/></g></g></g></svg>