<svg xmlns="http://www.w3.org/2000/svg" xmlns:xlink="http://www.w3.org/1999/xlink" fill="none" version="1.1" width="12" height="16" viewBox="0 0 12 16"><defs><clipPath id="master_svg0_41_475"><rect x="0" y="0" width="12" height="16" rx="0"/></clipPath></defs><g clip-path="url(#master_svg0_41_475)"><g transform="matrix(1,0,0,-1,0,32.6875)"><g><path d="M1.1688703505249023,31.34375Q1.1688703505249023,31.78125,1.4457983505249024,32.06255Q1.7227183505249024,32.34375,2.1534883505249023,32.34375L10.030408350524903,32.34375Q10.461148350524903,32.34375,10.738148350524902,32.06255Q11.015048350524902,31.78125,11.015048350524902,31.34375Q11.015048350524902,30.90625,10.738148350524902,30.62495Q10.461148350524903,30.34375,10.030408350524903,30.34375L9.138098350524903,30.34375L9.476558350524902,25.71875Q11.230448350524902,24.75,11.907348350524902,22.75L11.938148350524902,22.65625Q12.091948350524902,22.1875,11.815048350524902,21.75Q11.507348350524902,21.34375,11.015048350524902,21.34375L1.1688703505249023,21.34375Q0.6765623505249023,21.34375,0.36887035052490236,21.75Q0.09194725052490234,22.1875,0.24579345052490234,22.65625L0.27656265052490236,22.75Q0.9534853505249024,24.75,2.7073283505249024,25.71875L3.0765583505249023,30.34375L2.1534883505249023,30.34375Q1.7227183505249024,30.34375,1.4457983505249024,30.62495Q1.1688703505249023,30.90625,1.1688703505249023,31.34375ZM5.107328350524902,20.34375L7.076558350524903,20.34375L5.107328350524902,20.34375L7.076558350524903,20.34375L7.076558350524903,17.34375Q7.076558350524903,16.90625,6.799638350524902,16.625Q6.522718350524903,16.34375,6.091948350524902,16.34375Q5.661178350524902,16.34375,5.384258350524902,16.625Q5.107328350524902,16.90625,5.107328350524902,17.34375L5.107328350524902,20.34375Z" fill="#FFFFFF" fill-opacity="1" style="mix-blend-mode:passthrough"/></g></g></g></svg>