<svg xmlns="http://www.w3.org/2000/svg" xmlns:xlink="http://www.w3.org/1999/xlink" fill="none" version="1.1" width="16" height="16" viewBox="0 0 16 16"><defs><clipPath id="master_svg0_30_0323"><rect x="0" y="0" width="16" height="16" rx="0"/></clipPath></defs><g clip-path="url(#master_svg0_30_0323)"><g transform="matrix(1,0,0,-1,0,32.70166015625)"><g><path d="M15.53315,32.170430078125Q16.03125,31.826730078125,15.96895,31.201730078125L13.97675,18.201680078125Q13.88335,17.732930078125,13.47875,17.482930078125Q13.04295,17.264182078125,12.60715,17.451680078125L8.87172,18.982930078125L6.75499,16.670432078125Q6.25693,16.201682078125,5.63436,16.420432378125Q5.04292,16.701682078125,5.01179,17.357930078125L5.01179,19.982930078125Q5.01179,20.170430078125,5.13631,20.295430078125L10.36585,26.014180078125Q10.61495,26.357930078125,10.33475,26.701730078125Q10.02347,26.982930078125,9.64993,26.732930078125L3.33086,21.076680078125L0.591561,22.451680078125Q0.0623784,22.732930078125,0.03125,23.326680078125Q0.03125,23.920430078125,0.529304,24.232930078125L14.47485,32.232930078125Q15.03515,32.514230078124996,15.53315,32.170430078125Z" fill="#FFFFFF" fill-opacity="1" style="mix-blend-mode:passthrough"/></g></g></g></svg>