<svg xmlns="http://www.w3.org/2000/svg" xmlns:xlink="http://www.w3.org/1999/xlink" fill="none" version="1.1" width="38" height="38" viewBox="0 0 38 38"><defs><filter id="master_svg0_sa5_94" filterUnits="objectBoundingBox" color-interpolation-filters="sRGB" x="-0.125" y="-0.09375" width="1.25" height="1.25"><feFlood flood-opacity="0" result="BackgroundImageFix"/><feColorMatrix in="SourceAlpha" type="matrix" values="0 0 0 0 0 0 0 0 0 0 0 0 0 0 0 0 0 0 127 0"/><feOffset dy="1" dx="0"/><feGaussianBlur stdDeviation="1"/><feColorMatrix type="matrix" values="0 0 0 0 0 0 0 0 0 0 0 0 0 0 0 0 0 0 0.05000000074505806 0"/><feBlend mode="normal" in2="BackgroundImageFix" result="effect1_dropShadow"/><feBlend mode="normal" in="SourceGraphic" in2="effect1_dropShadow" result="shape"/></filter><clipPath id="master_svg1_sa5_033"><rect x="11" y="10" width="16" height="16" rx="0"/></clipPath></defs><g filter="url(#master_svg0_sa5_94)"><rect x="3" y="2" width="32" height="32" rx="4" fill="#000000" fill-opacity="1" style="mix-blend-mode:passthrough"/><rect x="3" y="2" width="32" height="32" rx="4" fill="#000000" fill-opacity="0.0010000000474974513" style="mix-blend-mode:passthrough"/><g clip-path="url(#master_svg1_sa5_033)"><g transform="matrix(1,0,0,-1,0,52.6875)"><g><path d="M26.86915885467529,37.12495Q27.000258854675295,36.68755,26.67245885467529,36.37495L25.229758854675293,35.125Q25.295358854675293,34.75,25.295358854675293,34.34375Q25.295358854675293,33.9375,25.229758854675293,33.5625L26.67245885467529,32.3125Q27.000258854675295,32,26.86915885467529,31.5625Q26.639658854675293,31,26.34455885467529,30.46875L26.180558854675294,30.21875Q25.852758854675294,29.71875,25.45925885467529,29.25Q25.131458854675294,28.90625,24.67245885467529,29.03125L22.836358854675293,29.59375Q22.180558854675294,29.09375,21.39375885467529,28.8125L21.000278854675294,27Q20.869138854675292,26.5625,20.37732885467529,26.46875Q19.721588854675293,26.34375,19.000278854675294,26.34375Q18.27896885467529,26.34375,17.590448854675294,26.46875Q17.131428854675292,26.5625,17.000278854675294,27L16.606838854675292,28.8125Q15.819958854675292,29.09375,15.164218854675294,29.59375L13.328148854675293,29.03125Q12.869138854675294,28.90625,12.541268854675293,29.25Q12.115038854675293,29.71875,11.819953854675292,30.21875L11.656019854675293,30.46875Q11.360937854675292,31,11.131429554675293,31.53125Q11.000282054675292,32,11.328150854675293,32.3125L12.770768854675293,33.53125Q12.705198854675293,33.9375,12.705198854675293,34.34375Q12.705198854675293,34.75,12.770768854675293,35.125L11.328150854675293,36.37495Q11.000282054675292,36.68755,11.131429554675293,37.12495Q11.360937854675292,37.68755,11.656019854675293,38.21875L11.819953854675292,38.46875Q12.115038854675293,38.96875,12.541268854675293,39.43755Q12.869138854675294,39.78125,13.328148854675293,39.65625L15.164218854675294,39.09375Q15.819958854675292,39.59375,16.606838854675292,39.90625L17.000278854675294,41.68755Q17.131428854675292,42.12505,17.623228854675293,42.21875Q18.27896885467529,42.34375,19.000278854675294,42.34375Q19.721588854675293,42.34375,20.410118854675293,42.21875Q20.869138854675292,42.12505,21.000278854675294,41.68755L21.39375885467529,39.90625Q22.180558854675294,39.59375,22.836358854675293,39.09375L24.67245885467529,39.65625Q25.131458854675294,39.78125,25.45925885467529,39.43755Q25.885558854675295,38.96875,26.213358854675292,38.46875L26.34455885467529,38.21875Q26.639658854675293,37.68755,26.86915885467529,37.12495ZM19.000278854675294,31.84375Q20.47568885467529,31.875,21.26255885467529,33.09375Q21.983858854675294,34.34375,21.26255885467529,35.59375Q20.47568885467529,36.81255,19.000278854675294,36.84375Q17.524868854675294,36.81255,16.737988854675294,35.59375Q16.01667885467529,34.34375,16.737988854675294,33.09375Q17.524868854675294,31.875,19.000278854675294,31.84375Z" fill="#FFFFFF" fill-opacity="1" style="mix-blend-mode:passthrough"/></g></g></g></g></svg>