<svg xmlns="http://www.w3.org/2000/svg" xmlns:xlink="http://www.w3.org/1999/xlink" fill="none" version="1.1" width="15.8125" height="16" viewBox="0 0 15.8125 16"><g transform="matrix(1,0,0,-1,0,32)"><g><path d="M15.7752,26.7812Q15.9063,26.3438,15.5785,26.0312L14.1358,24.78125Q14.2014,24.40625,14.2014,24Q14.2014,23.59375,14.1358,23.21875L15.5785,21.96875Q15.9063,21.65625,15.7752,21.21875Q15.5457,20.65625,15.2506,20.125L15.0866,19.875Q14.7588,19.375,14.3653,18.90625Q14.0375,18.5625,13.5785,18.6875L11.7424,19.25Q11.0866,18.75,10.2998,18.46875L9.90632,16.65625Q9.77518,16.21875,9.28337,16.125Q8.62763,16,7.90632,16Q7.18501,16,6.49649,16.125Q6.03747,16.21875,5.90632,16.65625L5.51288,18.46875Q4.726,18.75,4.07026,19.25L2.23419,18.6875Q1.77518,18.5625,1.44731,18.90625Q1.02108,19.375,0.725995,19.875L0.562061,20.125Q0.266979,20.65625,0.0374707,21.1875Q-0.0936768,21.65625,0.234192,21.96875L1.67681,23.1875Q1.61124,23.59375,1.61124,24Q1.61124,24.40625,1.67681,24.78125L0.234192,26.0312Q-0.0936768,26.3438,0.0374707,26.7812Q0.266979,27.3438,0.562061,27.875L0.725995,28.125Q1.02108,28.625,1.44731,29.0938Q1.77518,29.4375,2.23419,29.3125L4.07026,28.75Q4.726,29.25,5.51288,29.5625L5.90632,31.3438Q6.03747,31.7813,6.52927,31.875Q7.18501,32,7.90632,32Q8.62763,32,9.31616,31.875Q9.77518,31.7813,9.90632,31.3438L10.2998,29.5625Q11.0866,29.25,11.7424,28.75L13.5785,29.3125Q14.0375,29.4375,14.3653,29.0938Q14.7916,28.625,15.1194,28.125L15.2506,27.875Q15.5457,27.3438,15.7752,26.7812ZM7.90632,21.5Q9.38173,21.53125,10.1686,22.75Q10.8899,24,10.1686,25.25Q9.38173,26.4688,7.90632,26.5Q6.43091,26.4688,5.64403,25.25Q4.92272,24,5.64403,22.75Q6.43091,21.53125,7.90632,21.5Z" fill="#FFFFFF" fill-opacity="1" style="mix-blend-mode:passthrough"/></g></g></svg>