<svg xmlns="http://www.w3.org/2000/svg" xmlns:xlink="http://www.w3.org/1999/xlink" fill="none" version="1.1" width="20" height="12" viewBox="0 0 20 12"><g transform="matrix(1,0,0,-1,0,24)"><g><path d="M0,22Q0.03125,22.8438,0.59375,23.4062Q1.15625,23.9688,2,24L8,24L18,24Q18.8438,23.9688,19.4062,23.4062Q19.9688,22.8438,20,22L20,14Q19.9688,13.15625,19.4062,12.59375Q18.8438,12.03125,18,12L10,12L2,12Q1.15625,12.03125,0.59375,12.59375Q0.03125,13.15625,0,14L0,22ZM10,22L10,14L10,22L10,14L18,14L18,22L10,22ZM5.5625,20.5Q5.40625,20.84375,5,20.875Q4.59375,20.84375,4.4375,20.5L2.4375,16Q2.25,15.46875,2.75,15.1875Q3.28125,15,3.5625,15.5L3.84375,16.125L6.15625,16.125L6.4375,15.5Q6.71875,15,7.25,15.1875Q7.75,15.46875,7.5625,16L5.5625,20.5ZM5,18.71875L5.59375,17.375L5,18.71875L5.59375,17.375L4.40625,17.375L5,18.71875ZM14,20.875Q14.5625,20.8125,14.625,20.25L14.625,20.125L16,20.125L16.5,20.125Q17.0625,20.0625,17.125,19.5Q17.0625,18.9375,16.5,18.875L16.4375,18.875L16.375,18.71875Q15.9688,17.59375,15.1562,16.6875Q15.1875,16.65625,15.25,16.625L15.8125,16.28125Q16.2812,15.9375,16.0312,15.4375Q15.6875,14.96875,15.1875,15.21875L14.5938,15.5625Q14.375,15.6875,14.1875,15.84375Q13.6875,15.46875,13.125,15.21875L13,15.1875Q12.4688,15,12.1875,15.5Q12,16.03125,12.5,16.3125L12.625,16.375Q12.9062,16.5,13.1875,16.6875L12.8125,17.0625Q12.4375,17.5,12.8125,17.9375Q13.25,18.3125,13.6875,17.9375L14.1562,17.5L14.1562,17.46875Q14.75,18.09375,15.0938,18.875L14,18.875L11.75,18.875Q11.1875,18.9375,11.125,19.5Q11.1875,20.0625,11.75,20.125L13.375,20.125L13.375,20.25Q13.4375,20.8125,14,20.875Z" fill="#000000" fill-opacity="1" style="mix-blend-mode:passthrough"/></g></g></svg>